<svg width="56" height="56" viewBox="0 0 56 56" fill="none" xmlns="http://www.w3.org/2000/svg">
<g clip-path="url(#clip0_3051_4943)">
<path d="M42 9.21641C42 7.43819 40.6198 6 38.9134 6C38.1726 6 37.4935 6.2711 36.96 6.72599L36.9291 6.68923L30.4475 11.3327C30.1037 11.5791 29.642 11.5824 29.2946 11.3411L22.442 6.58055C22.1323 6.36539 21.7278 6.34277 21.3961 6.52204L19.0609 7.78386C18.437 8.12095 18.3525 8.98222 18.8989 9.43418L24.021 13.6711C24.5272 14.0898 24.499 14.8746 23.9641 15.2559L21.3897 17.0914C21.0549 17.3302 20.608 17.3396 20.2634 17.1152L17.8419 15.538C17.5157 15.3256 17.096 15.3217 16.766 15.5281L15.1487 16.5393C14.578 16.8961 14.5156 17.7033 15.0247 18.1436L17.969 20.6897C18.1507 20.8469 18.3829 20.9333 18.6231 20.9333H28.2199C28.435 20.9333 28.6444 20.864 28.817 20.7355L40.8976 11.7436L40.8668 11.7068C41.5591 11.1187 42 10.2227 42 9.21641Z" fill="#FF4F17"/>
<path fill-rule="evenodd" clip-rule="evenodd" d="M15.2969 25.1999C15.2969 24.7581 15.6451 24.3999 16.0747 24.3999L32.6672 24.3999C33.0968 24.3999 33.445 24.7581 33.445 25.1999C33.445 25.6417 33.0968 25.9999 32.6672 25.9999L16.0747 25.9999C15.6451 25.9999 15.2969 25.6417 15.2969 25.1999Z" fill="#FF4F17"/>
</g>
<path d="M11.4125 38.5663C9.12522 38.5663 7.5382 37.6423 7.54234 36.1878C7.5382 34.7086 9.12522 33.768 11.4125 33.768C13.7039 33.768 15.3034 34.7086 15.3034 36.1878C15.3034 37.6423 13.7039 38.5663 11.4125 38.5663ZM11.4125 34.9613C9.98295 34.9655 9.07549 35.4047 9.08378 36.1878C9.07549 36.9544 9.98295 37.3854 11.4125 37.3854C12.8545 37.3854 13.7578 36.9544 13.7578 36.1878C13.7578 35.4047 12.8545 34.9655 11.4125 34.9613ZM6.56444 39.3743H16.3186V40.5967H12.1501V44.0898H10.6708V40.5967H6.56444V39.3743ZM24.3941 44.1064V33.4075H25.8817V44.1064H24.3941ZM19.0612 38.4171V40.3771C20.6938 40.3646 22.0737 40.2776 23.6317 40.0166L23.7601 41.2307C22.0115 41.5414 20.4286 41.6077 18.477 41.6077H17.5198V37.2403H21.0543V35.5124H17.5115V34.3066H22.5792V38.4171H19.0612ZM34.8356 35.6036V33.4075H36.3149V44.1064H34.8356V40.1077H32.6064C32.134 41.1644 31.2887 41.7693 30.2569 41.7693C28.6367 41.7693 27.4807 40.3025 27.4848 37.9572C27.4807 35.6367 28.6367 34.1616 30.2569 34.1616C31.2141 34.1616 32.0097 34.6878 32.4986 35.6036H34.8356ZM30.2569 40.4144C31.0608 40.4144 31.5953 39.5525 31.5994 37.9572C31.5953 36.3785 31.0608 35.5124 30.2569 35.5124C29.4613 35.5124 28.9144 36.3785 28.9185 37.9572C28.9144 39.5525 29.4613 40.4144 30.2569 40.4144ZM32.9461 38.9102H34.8356V36.8094H32.913C32.9793 37.1616 33.0166 37.547 33.0166 37.9572C33.0166 38.2928 32.9917 38.6119 32.9461 38.9102ZM45.4346 37.2735H44.5769V39.7514H43.1805V33.6105H44.5769V36.0552H45.4346V33.4075H46.8518V40.0994H45.4346V37.2735ZM40.9968 34.5097H42.8697V35.6699H37.6321V34.5097H39.5134V33.5069H40.9968V34.5097ZM42.5962 37.895C42.5921 38.9972 41.6225 39.739 40.2634 39.739C38.9291 39.739 37.9553 38.9972 37.9553 37.895C37.9553 36.7721 38.9291 36.0304 40.2634 36.0304C41.6225 36.0304 42.5921 36.7721 42.5962 37.895ZM39.2896 37.895C39.2896 38.384 39.6832 38.6823 40.2634 38.6782C40.8476 38.6823 41.2413 38.384 41.2454 37.895C41.2413 37.3936 40.8476 37.0994 40.2634 37.1077C39.6832 37.0994 39.2896 37.3936 39.2896 37.895ZM43.2053 40.203C45.5134 40.203 46.9015 40.9075 46.9056 42.1423C46.9015 43.3771 45.5134 44.0815 43.2053 44.0773C40.9098 44.0815 39.5092 43.3771 39.5175 42.1423C39.5092 40.9075 40.9098 40.203 43.2053 40.203ZM43.2053 42.9503C44.6598 42.9544 45.3973 42.6809 45.4015 42.1423C45.3973 41.5829 44.6598 41.3177 43.2053 41.3218C41.7592 41.3177 41.0051 41.5829 41.0092 42.1423C41.0051 42.6809 41.7592 42.9544 43.2053 42.9503Z" fill="#FF4F17"/>
<defs>
<clipPath id="clip0_3051_4943">
<rect width="28" height="20" fill="white" transform="translate(14 6)"/>
</clipPath>
</defs>
</svg>
