<svg width="10" height="10" viewBox="0 0 10 10" fill="none" xmlns="http://www.w3.org/2000/svg">
<g clip-path="url(#clip0_692_17263)">
<path fill-rule="evenodd" clip-rule="evenodd" d="M7.08464 3.33659H7.5013C7.95964 3.33659 8.33464 3.71159 8.33464 4.16992V8.33659C8.33464 8.79492 7.95964 9.16992 7.5013 9.16992H2.5013C2.04297 9.16992 1.66797 8.79492 1.66797 8.33659V4.16992C1.66797 3.71159 2.04297 3.33659 2.5013 3.33659H2.91797V2.50326C2.91797 1.35326 3.8513 0.419922 5.0013 0.419922C6.1513 0.419922 7.08464 1.35326 7.08464 2.50326V3.33659ZM3.70964 3.33659H6.29297V2.50326C6.29297 1.79076 5.7138 1.21159 5.0013 1.21159C4.2888 1.21159 3.70964 1.79076 3.70964 2.50326V3.33659Z" fill="#C3C4CE"/>
</g>
<defs>
<clipPath id="clip0_692_17263">
<rect width="10" height="10" fill="white"/>
</clipPath>
</defs>
</svg>
