<svg width="24" height="24" viewBox="0 0 24 24" fill="none" xmlns="http://www.w3.org/2000/svg">
<path d="M16 12.5C17.66 12.5 18.99 11.16 18.99 9.5C18.99 7.84 17.66 6.5 16 6.5C14.34 6.5 13 7.84 13 9.5C13 11.16 14.34 12.5 16 12.5ZM16 13.95C15.71 13.95 15.38 13.97 15.03 14C16.19 14.84 17 15.97 17 16.5V19H23V16.5C23 15.12 18.33 13.95 16 13.95Z" fill="#C3C4CE"/>
<path d="M7.5 11.5C9.57187 11.5 11.25 9.82188 11.25 7.75C11.25 5.67812 9.57187 4 7.5 4C5.42812 4 3.75 5.67812 3.75 7.75C3.75 9.82188 5.42812 11.5 7.5 11.5ZM7.5 13.375C4.99687 13.375 0 14.6313 0 17.125V19H15V17.125C15 14.6313 10.0031 13.375 7.5 13.375Z" fill="#C3C4CE"/>
</svg>
