<svg width="76" height="76" viewBox="0 0 76 76" fill="none" xmlns="http://www.w3.org/2000/svg">
<rect width="76.0008" height="76" fill="#F3F3F6"/>
<path d="M21.5329 34.4369C21.4852 34.2835 21.5711 34.1192 21.7269 34.0711L37.2699 29.2722C37.4256 29.2241 37.5897 29.3112 37.6373 29.4647L37.6847 29.6169C39.0616 34.0493 36.5738 38.7566 32.126 40.1299C27.6782 41.5031 22.9571 39.0216 21.5802 34.5892L21.5329 34.4369Z" fill="#C3C4CE" stroke="#C3C4CE" stroke-width="0.597183"/>
<path d="M21.4921 34.4495C21.4374 34.2735 21.5361 34.0854 21.7142 34.0304L37.2573 29.2315C37.4354 29.1765 37.6234 29.276 37.6781 29.4521L37.7254 29.6043C39.1094 34.0593 36.6089 38.7904 32.1387 40.1706C27.6684 41.5508 22.9234 39.0568 21.5394 34.6018L21.4921 34.4495Z" stroke="#C3C4CE" stroke-width="0.511871"/>
<path d="M30.217 21.4429C31.374 21.9619 31.7317 23.6682 31.016 25.254C30.3004 26.8398 28.7822 27.7047 27.6252 27.1857C26.4682 26.6668 26.1105 24.9605 26.8261 23.3747C27.5418 21.7888 29.06 20.924 30.217 21.4429Z" fill="#C3C4CE"/>
<path d="M20.6789 20.9396C21.8359 21.4586 22.1937 23.1649 21.478 24.7507C20.7623 26.3365 19.2442 27.2014 18.0871 26.6825C16.9301 26.1635 16.5724 24.4572 17.2881 22.8714C18.0037 21.2856 19.5219 20.4207 20.6789 20.9396Z" fill="#C3C4CE"/>
</svg>
