<svg width="48" height="48" viewBox="0 0 48 48" fill="none" xmlns="http://www.w3.org/2000/svg">
<path fill-rule="evenodd" clip-rule="evenodd" d="M24.0003 13C21.6915 13.0026 19.4781 13.914 17.8455 15.5343C16.2129 17.1546 15.2946 19.3515 15.292 21.6429C15.292 29.0386 23.2087 34.6241 23.5461 34.8578C23.6792 34.9504 23.8378 35 24.0003 35C24.1628 35 24.3214 34.9504 24.4545 34.8578C24.792 34.6241 32.7087 29.0386 32.7087 21.6429C32.706 19.3515 31.7877 17.1546 30.1552 15.5343C28.5226 13.914 26.3091 13.0026 24.0003 13ZM25.2503 19.9532C25.2503 20.6436 24.6907 21.2032 24.0003 21.2032C23.31 21.2032 22.7503 20.6436 22.7503 19.9532C22.7503 19.2629 23.31 18.7032 24.0003 18.7032C24.6907 18.7032 25.2503 19.2629 25.2503 19.9532ZM25.0003 23.6637C25.0003 23.1114 24.5526 22.6637 24.0003 22.6637C23.448 22.6637 23.0003 23.1114 23.0003 23.6637V27.6637C23.0003 28.216 23.448 28.6637 24.0003 28.6637C24.5526 28.6637 25.0003 28.216 25.0003 27.6637V23.6637Z" fill="#4A4D63"/>
</svg>
