<svg width="12" height="12" viewBox="0 0 12 12" fill="none" xmlns="http://www.w3.org/2000/svg">
<path fill-rule="evenodd" clip-rule="evenodd" d="M3.23077 0C3.48567 0 3.69231 0.20664 3.69231 0.461538V0.923077H8.30769V0.461538C8.30769 0.20664 8.51437 0 8.76923 0C9.02409 0 9.23077 0.20664 9.23077 0.461538V0.923077H10.6154C11.3801 0.923077 12 1.54299 12 2.30769V10.6154C12 11.3801 11.3801 12 10.6154 12H1.38462C0.619911 12 0 11.3801 0 10.6154V2.30769C0 1.54299 0.619911 0.923077 1.38462 0.923077H2.76923V0.461538C2.76923 0.20664 2.97587 0 3.23077 0ZM8.30769 1.84615V2.30769C8.30769 2.56259 8.51437 2.76923 8.76923 2.76923C9.02409 2.76923 9.23077 2.56259 9.23077 2.30769V1.84615H10.6154C10.8702 1.84615 11.0769 2.05279 11.0769 2.30769V3.69231H0.923077V2.30769C0.923077 2.05279 1.12972 1.84615 1.38462 1.84615H2.76923V2.30769C2.76923 2.56259 2.97587 2.76923 3.23077 2.76923C3.48567 2.76923 3.69231 2.56259 3.69231 2.30769V1.84615H8.30769ZM0.923077 4.61538V10.6154C0.923077 10.8702 1.12972 11.0769 1.38462 11.0769H10.6154C10.8702 11.0769 11.0769 10.8702 11.0769 10.6154V4.61538H0.923077ZM5.53846 6C5.53846 5.7451 5.7451 5.53846 6 5.53846C6.2549 5.53846 6.46154 5.7451 6.46154 6C6.46154 6.2549 6.2549 6.46154 6 6.46154C5.7451 6.46154 5.53846 6.2549 5.53846 6ZM7.84615 5.53846C7.59126 5.53846 7.38462 5.7451 7.38462 6C7.38462 6.2549 7.59126 6.46154 7.84615 6.46154C8.10105 6.46154 8.30769 6.2549 8.30769 6C8.30769 5.7451 8.10105 5.53846 7.84615 5.53846ZM9.23077 6C9.23077 5.7451 9.43745 5.53846 9.69231 5.53846C9.94717 5.53846 10.1538 5.7451 10.1538 6C10.1538 6.2549 9.94717 6.46154 9.69231 6.46154C9.43745 6.46154 9.23077 6.2549 9.23077 6ZM9.69231 7.38462C9.43745 7.38462 9.23077 7.59126 9.23077 7.84615C9.23077 8.10105 9.43745 8.30769 9.69231 8.30769C9.94717 8.30769 10.1538 8.10105 10.1538 7.84615C10.1538 7.59126 9.94717 7.38462 9.69231 7.38462ZM7.38462 7.84615C7.38462 7.59126 7.59126 7.38462 7.84615 7.38462C8.10105 7.38462 8.30769 7.59126 8.30769 7.84615C8.30769 8.10105 8.10105 8.30769 7.84615 8.30769C7.59126 8.30769 7.38462 8.10105 7.38462 7.84615ZM6 7.38462C5.7451 7.38462 5.53846 7.59126 5.53846 7.84615C5.53846 8.10105 5.7451 8.30769 6 8.30769C6.2549 8.30769 6.46154 8.10105 6.46154 7.84615C6.46154 7.59126 6.2549 7.38462 6 7.38462ZM3.69231 7.84615C3.69231 7.59126 3.89895 7.38462 4.15385 7.38462C4.40874 7.38462 4.61538 7.59126 4.61538 7.84615C4.61538 8.10105 4.40874 8.30769 4.15385 8.30769C3.89895 8.30769 3.69231 8.10105 3.69231 7.84615ZM2.30769 7.38462C2.05279 7.38462 1.84615 7.59126 1.84615 7.84615C1.84615 8.10105 2.05279 8.30769 2.30769 8.30769C2.56259 8.30769 2.76923 8.10105 2.76923 7.84615C2.76923 7.59126 2.56259 7.38462 2.30769 7.38462ZM1.84615 9.69231C1.84615 9.43745 2.05279 9.23077 2.30769 9.23077C2.56259 9.23077 2.76923 9.43745 2.76923 9.69231C2.76923 9.94717 2.56259 10.1538 2.30769 10.1538C2.05279 10.1538 1.84615 9.94717 1.84615 9.69231ZM4.15385 9.23077C3.89895 9.23077 3.69231 9.43745 3.69231 9.69231C3.69231 9.94717 3.89895 10.1538 4.15385 10.1538C4.40874 10.1538 4.61538 9.94717 4.61538 9.69231C4.61538 9.43745 4.40874 9.23077 4.15385 9.23077ZM5.53846 9.69231C5.53846 9.43745 5.7451 9.23077 6 9.23077C6.2549 9.23077 6.46154 9.43745 6.46154 9.69231C6.46154 9.94717 6.2549 10.1538 6 10.1538C5.7451 10.1538 5.53846 9.94717 5.53846 9.69231ZM7.84615 9.23077C7.59126 9.23077 7.38462 9.43745 7.38462 9.69231C7.38462 9.94717 7.59126 10.1538 7.84615 10.1538C8.10105 10.1538 8.30769 9.94717 8.30769 9.69231C8.30769 9.43745 8.10105 9.23077 7.84615 9.23077Z" fill="#9093A8"/>
</svg>
