<svg width="327" height="235" viewBox="0 0 327 235" fill="none" xmlns="http://www.w3.org/2000/svg">
<mask id="path-1-inside-1_769_3720" fill="white">
<path fill-rule="evenodd" clip-rule="evenodd" d="M0 5.99999C0 2.68629 2.68629 0 6 0H321C324.314 0 327 2.68629 327 6V84.8184C322.029 84.8184 318 88.8392 318 93.7991C318 98.759 322.029 102.78 327 102.78V229C327 232.314 324.314 235 321 235H6C2.6863 235 0 232.314 0 229V102.78C4.97056 102.78 9 98.759 9 93.7991C9 88.8392 4.97056 84.8184 0 84.8184V5.99999Z"/>
</mask>
<path fill-rule="evenodd" clip-rule="evenodd" d="M0 5.99999C0 2.68629 2.68629 0 6 0H321C324.314 0 327 2.68629 327 6V84.8184C322.029 84.8184 318 88.8392 318 93.7991C318 98.759 322.029 102.78 327 102.78V229C327 232.314 324.314 235 321 235H6C2.6863 235 0 232.314 0 229V102.78C4.97056 102.78 9 98.759 9 93.7991C9 88.8392 4.97056 84.8184 0 84.8184V5.99999Z" fill="white"/>
<path d="M327 84.8184V85.8184H328V84.8184H327ZM327 102.78H328V101.78H327V102.78ZM0 102.78V101.78H-1V102.78H0ZM0 84.8184H-1V85.8184H0V84.8184ZM6 -1C2.13401 -1 -1 2.134 -1 5.99999H1C1 3.23857 3.23857 1 6 1V-1ZM321 -1H6V1H321V-1ZM328 6C328 2.134 324.866 -1 321 -1V1C323.761 1 326 3.23858 326 6H328ZM328 84.8184V6H326V84.8184H328ZM319 93.7991C319 89.3935 322.58 85.8184 327 85.8184V83.8184C321.479 83.8184 317 88.2849 317 93.7991H319ZM327 101.78C322.58 101.78 319 98.2047 319 93.7991H317C317 99.3133 321.479 103.78 327 103.78V101.78ZM328 229V102.78H326V229H328ZM321 236C324.866 236 328 232.866 328 229H326C326 231.761 323.761 234 321 234V236ZM6 236H321V234H6V236ZM-1 229C-1 232.866 2.13401 236 6 236V234C3.23858 234 1 231.761 1 229H-1ZM-1 102.78V229H1V102.78H-1ZM8 93.7991C8 98.2047 4.4203 101.78 0 101.78V103.78C5.52083 103.78 10 99.3133 10 93.7991H8ZM0 85.8184C4.4203 85.8184 8 89.3935 8 93.7991H10C10 88.2849 5.52083 83.8184 0 83.8184V85.8184ZM-1 5.99999V84.8184H1V5.99999H-1Z" fill="#E4E5ED" mask="url(#path-1-inside-1_769_3720)"/>
<path fill-rule="evenodd" clip-rule="evenodd" d="M19.5259 94L17 94L17 93L19.5259 93L19.5259 94ZM29.6293 94L24.5776 94L24.5776 93L29.6293 93L29.6293 94ZM39.7328 94L34.681 94L34.681 93L39.7328 93L39.7328 94ZM49.8362 94L44.7845 94L44.7845 93L49.8362 93L49.8362 94ZM59.9397 94L54.8879 94L54.8879 93L59.9397 93L59.9397 94ZM70.0431 94L64.9914 94L64.9914 93L70.0431 93L70.0431 94ZM80.1465 94L75.0948 94L75.0948 93L80.1465 93L80.1465 94ZM90.25 94L85.1983 94L85.1983 93L90.25 93L90.25 94ZM100.353 94L95.3017 94L95.3017 93L100.353 93L100.353 94ZM110.457 94L105.405 94L105.405 93L110.457 93L110.457 94ZM120.56 94L115.509 94L115.509 93L120.56 93L120.56 94ZM130.664 94L125.612 94L125.612 93L130.664 93L130.664 94ZM140.767 94L135.716 94L135.716 93L140.767 93L140.767 94ZM150.871 94L145.819 94L145.819 93L150.871 93L150.871 94ZM160.974 94L155.922 94L155.922 93L160.974 93L160.974 94ZM171.078 94L166.026 94L166.026 93L171.078 93L171.078 94ZM181.181 94L176.129 94L176.129 93L181.181 93L181.181 94ZM191.285 94L186.233 94L186.233 93L191.285 93L191.285 94ZM201.388 94L196.336 94L196.336 93L201.388 93L201.388 94ZM211.491 94L206.44 94L206.44 93L211.491 93L211.491 94ZM221.595 94L216.543 94L216.543 93L221.595 93L221.595 94ZM231.698 94L226.647 94L226.647 93L231.698 93L231.698 94ZM241.802 94L236.75 94L236.75 93L241.802 93L241.802 94ZM251.905 94L246.854 94L246.854 93L251.905 93L251.905 94ZM262.009 94L256.957 94L256.957 93L262.009 93L262.009 94ZM272.112 94L267.06 94L267.06 93L272.112 93L272.112 94ZM282.216 94L277.164 94L277.164 93L282.216 93L282.216 94ZM292.319 94L287.267 94L287.267 93L292.319 93L292.319 94ZM302.423 94L297.371 94L297.371 93L302.423 93L302.423 94ZM310 94L307.474 94L307.474 93L310 93L310 94Z" fill="#E4E5ED"/>
</svg>
