<svg width="25" height="24" viewBox="0 0 25 24" fill="none" xmlns="http://www.w3.org/2000/svg">
<circle cx="12.5" cy="12" r="10" fill="#E4E5ED"/>
<path fill-rule="evenodd" clip-rule="evenodd" d="M7.92184 8.12876C7.72657 7.9335 7.72657 7.61692 7.92184 7.42165C8.1171 7.22639 8.43368 7.22639 8.62894 7.42165L12.4998 11.2925L16.3706 7.42165C16.5659 7.22639 16.8825 7.22639 17.0777 7.42165C17.273 7.61692 17.273 7.9335 17.0777 8.12876L13.2069 11.9996L17.0777 15.8704C17.273 16.0657 17.273 16.3823 17.0777 16.5776C16.8825 16.7728 16.5659 16.7728 16.3706 16.5776L12.4998 12.7067L8.62894 16.5776C8.43368 16.7728 8.1171 16.7728 7.92184 16.5776C7.72657 16.3823 7.72657 16.0657 7.92184 15.8704L11.7927 11.9996L7.92184 8.12876Z" fill="#9093A8"/>
</svg>
